<svg xmlns="http://www.w3.org/2000/svg" viewBox="0 0 182.16 48.36">
        <g class="letters">
            <path d="M145.38,11c-5.35,0-8.02,3.08-8.02,8.8s2.67,8.72,8.02,8.72,7.98-3.02,7.98-8.72-2.66-8.8-7.98-8.8Zm3.75,12.76c-.71,.95-1.96,1.43-3.75,1.43-1.79,0-3.04-.48-3.75-1.43-.67-1.21-.98-2.58-.87-3.96-.1-1.39,.2-2.79,.87-4.01,.71-.97,1.96-1.46,3.75-1.46s3.04,.49,3.75,1.46c.67,1.22,.98,2.62,.87,4.01,.1,1.38-.2,2.75-.87,3.96Z"></path>
            <path d="M135.25,28.35h-3.4v-8.78c.11-1.32-.2-2.64-.87-3.78-.71-.97-1.95-1.46-3.72-1.46-1.41-.15-2.81,.39-3.76,1.46-.67,1.14-.97,2.46-.87,3.78v8.78h-3.39V4.46h3.39v7.96c1.31-1.04,2.96-1.54,4.62-1.42,5.32,0,7.99,2.86,7.99,8.58v8.76Z"></path>
            <path d="M7.31,11.01c-2.7,0-4.3,.65-5.49,1.9-.86,.92-1.4,2.1-1.53,3.35H3.72c0-.43,.22-1.91,3.59-1.91,1.6,0,4.45,.2,4.45,1.91,.03,.41-.16,.8-.49,1.03-1.24,.57-2.6,.82-3.96,.75-2.7,0-4.9,.63-6.09,1.88-1.63,1.95-1.63,4.78,0,6.73,1.19,1.25,3.39,1.88,6.09,1.88,4.73,0,7.82-2.26,7.82-6.52v-4.76c0-4.76-3.09-6.24-7.82-6.24Zm4.45,10.8c.09,1.03-.31,2.04-1.09,2.72-1.01,.46-2.14,.61-3.23,.44-2.08,0-3.02-.07-3.55-.51-.33-.35-.5-.82-.46-1.3,.04-.48,.29-.92,.69-1.2,1-.59,2.16-.87,3.32-.8,.69,0,3.83,.07,4.32-.9v1.55Z"></path>
            <path d="M182.16,28.35c-5.73,0-8.6-2.07-8.6-6.21V4.46h3.36V22.17c-.05,.77,.29,1.51,.9,1.97,.8,.58,2.24,.87,4.33,.87v3.33Z"></path>
            <path d="M117.33,23.12c-.93,3.49-3.46,5.4-7.6,5.4-5.32,0-7.99-3.03-7.99-8.75s2.66-8.77,7.99-8.77c4.14,0,6.67,1.95,7.6,5.42h-3.56c-.65-1.25-1.68-2.09-4.04-2.09-2.01,0-3.04,.61-3.75,1.56-.67,1.17-.98,2.52-.87,3.87-.09,1.39,.22,2.78,.91,3.99,.71,.97,1.75,1.43,3.71,1.43,2.25,0,3.37-.8,4.04-2.07h3.56Z"></path>
            <path d="M99.98,16.08h-3.45c.01-.42-.15-.84-.45-1.13-1.01-.53-2.15-.76-3.28-.65-1.55,0-2.66,.1-3.18,.53-.36,.32-.57,.78-.58,1.26-.08,.58,.17,1.16,.65,1.51,1.04,.38,2.13,.56,3.24,.53,1.59,.03,3.16,.32,4.65,.87,1.64,.81,2.61,2.55,2.43,4.38,0,3.42-2.59,5.12-7.21,5.12s-7.18-1.69-7.45-5.14h3.52c.03,.49,.28,.94,.66,1.24,.52,.44,1.71,.58,3.26,.58,1.17,.11,2.34-.12,3.39-.65,.32-.29,.49-.71,.45-1.14,.09-.57-.2-1.13-.71-1.39-1.04-.34-2.13-.51-3.23-.52-1.56-.03-3.1-.32-4.56-.87-1.64-.88-2.61-2.64-2.46-4.5,0-3.42,2.72-5.12,7.12-5.12,4.61,0,7.01,2.02,7.19,5.11"></path>
            <path d="M75.4,11c-5.35,0-8.02,3.08-8.02,8.8s2.67,8.72,8.02,8.72,7.99-3.02,7.99-8.72-2.66-8.8-7.99-8.8Zm3.75,12.76c-.71,.95-1.96,1.43-3.75,1.43-1.79,0-3.04-.48-3.75-1.43-.67-1.21-.98-2.58-.87-3.96-.1-1.39,.2-2.79,.87-4.01,.71-.97,1.96-1.46,3.75-1.46s3.04,.49,3.75,1.46c.67,1.22,.98,2.62,.87,4.01,.1,1.38-.2,2.75-.87,3.96Z"></path>
            <path d="M65.8,14.55c-2.09,0-3.53,.29-4.33,.87-.61,.55-.93,1.36-.87,2.18v10.75h-3.36v-10.91c0-4.15,2.86-6.23,8.57-6.23v3.33Z"></path>
            <path d="M54.82,28.35h-3.39v-8.78c.11-1.32-.2-2.64-.87-3.78-.71-.97-1.95-1.46-3.72-1.46-1.41-.15-2.81,.39-3.76,1.46-.67,1.14-.97,2.46-.87,3.78v8.78h-3.4V4.46h3.4v7.96c1.31-1.04,2.96-1.54,4.62-1.42,5.32,0,7.99,2.86,7.99,8.58v8.76Z"></path>
            <path d="M36.87,28.38c-5.71,0-8.57-2.08-8.57-6.24V4.46h3.36v6.76h5.21v3.33h-5.2v7.61c-.06,.78,.27,1.53,.87,2.02,.8,.59,2.24,.88,4.33,.88v3.33Z"></path>
            <path d="M26.3,14.55c-2.09,0-3.53,.29-4.33,.87-.61,.55-.93,1.36-.87,2.18v10.75h-3.36v-10.91c0-4.15,2.86-6.23,8.57-6.23v3.33Z"></path>
            <path d="M163.32,11c-5.34,0-8.02,3.08-8.02,8.8s2.67,8.72,8.02,8.72,7.98-3.02,7.98-8.72-2.66-8.8-7.98-8.8Zm3.75,12.76c-.71,.95-1.96,1.43-3.75,1.43-1.79,0-3.04-.48-3.75-1.43-.67-1.21-.98-2.58-.87-3.96-.1-1.39,.2-2.79,.87-4.01,.71-.97,1.96-1.46,3.75-1.46s3.04,.49,3.75,1.46c.67,1.22,.98,2.62,.87,4.01,.1,1.38-.2,2.75-.87,3.96Z"></path>
        </g>
        <g class="icon">
            <path class="eye eye--1" d="M159.9,21.48c-.16-1.87,1.22-3.53,3.1-3.69,1.87-.16,3.53,1.22,3.69,3.1,.02,.2,.02,.4,0,.59,.16,1.87-1.22,3.53-3.1,3.69-1.87,.16-3.53-1.22-3.69-3.1-.02-.2-.02-.4,0-.59"></path>
            <path class="eye eye--2" d="M141.97,21.48c-.16-1.87,1.22-3.53,3.1-3.69,1.87-.16,3.53,1.22,3.69,3.1,.02,.2,.02,.4,0,.59,.16,1.87-1.22,3.53-3.1,3.69-1.87,.16-3.53-1.22-3.69-3.1-.02-.2-.02-.4,0-.59"></path>
            <path class="body" d="M128.69,48.36c4.36-4.73,12.92-7.1,25.69-7.1s21.25,2.37,25.59,7.1h-51.28Zm40.77-16.46c-2.56,5.29-7.6,7.94-15.11,7.94s-12.5-2.65-15.05-7.94h30.16Zm-30.2-24.3c2.02-4.18,5.59-6.71,10.7-7.59,.17,2.3,2.08,4.08,4.38,4.08,2.31,0,4.22-1.79,4.38-4.09,5.11,.87,8.68,3.41,10.7,7.6h-30.16Z"></path>
        </g>
    </svg>